<svg width="32" height="34" viewBox="0 0 32 34" fill="none" xmlns="http://www.w3.org/2000/svg">
<path d="M23.7837 8.81468C23.7837 13.1219 20.257 16.6294 15.887 16.6294C11.517 16.6294 7.9903 13.1219 7.9903 8.81468C7.9903 4.50746 11.517 1 15.887 1C20.257 1 23.7837 4.50746 23.7837 8.81468Z" stroke="black" stroke-width="2"/>
<mask id="path-2-inside-1_229_233" fill="white">
<path fill-rule="evenodd" clip-rule="evenodd" d="M0 33.3699H32C30.3935 25.8088 23.8402 20.1478 16 20.1478C8.15987 20.1478 1.60648 25.8088 0 33.3699Z"/>
</mask>
<path d="M0 33.3699L-1.95633 32.9542L-2.46958 35.3699H0V33.3699ZM32 33.3699V35.3699H34.4696L33.9564 32.9542L32 33.3699ZM0 35.3699H32V31.3699H0V35.3699ZM16 22.1478C22.8403 22.1478 28.6217 27.0929 30.0437 33.7855L33.9564 32.9542C32.1654 24.5248 24.84 18.1478 16 18.1478V22.1478ZM1.95633 33.7855C3.37831 27.0929 9.15972 22.1478 16 22.1478V18.1478C7.16002 18.1478 -0.16534 24.5248 -1.95633 32.9542L1.95633 33.7855Z" fill="black" mask="url(#path-2-inside-1_229_233)"/>
</svg>
